<svg width="946" height="202" viewBox="0 0 946 202" fill="none" xmlns="http://www.w3.org/2000/svg">
<g clip-path="url(#clip0_214_124)">
<path d="M0.350586 25.8789C0.350586 12.0718 11.5435 0.878906 25.3506 0.878906H175.351C189.158 0.878906 200.351 12.0718 200.351 25.8789V176.323C200.351 190.13 189.158 201.323 175.351 201.323H25.3506C11.5435 201.323 0.350586 190.13 0.350586 176.323V25.8789Z" fill="#4289EC"/>
<path d="M0.794922 201.768H21.6838L120.85 102.879C122.85 101.379 121.106 95.1345 114.35 88.3789C107.595 81.6234 101.85 80.3789 99.8505 81.8789L0.794922 179.99V201.768Z" fill="#263142"/>
<path d="M70.3373 111.032L99.9468 81.7166C97.5526 84.1108 100.415 90.1656 106.119 95.8692C111.822 101.573 118.941 104.755 121.442 102.254L91.2212 132.488C88.7738 134.936 79.7331 132.188 74.7957 127.25C69.8582 122.313 68.1612 113.209 70.3373 111.032Z" fill="white"/>
<path d="M18.5728 101.546C18.5728 98.7229 20.8611 96.4346 23.6839 96.4346H53.9061C56.7289 96.4346 59.0172 98.7229 59.0172 101.546C59.0172 104.368 56.7289 106.657 53.9061 106.657H23.6839C20.8611 106.657 18.5728 104.368 18.5728 101.546Z" fill="white"/>
<path d="M42.1867 43.6042C44.1827 41.6082 47.4189 41.6082 49.4149 43.6042L70.7852 64.9746C72.7812 66.9706 72.7812 70.2067 70.7852 72.2028C68.7892 74.1988 65.553 74.1988 63.557 72.2028L42.1867 50.8324C40.1907 48.8364 40.1907 45.6002 42.1867 43.6042Z" fill="white"/>
<path d="M100.572 19.5457C103.395 19.5457 105.684 21.834 105.684 24.6568L105.684 54.879C105.684 57.7018 103.395 59.9901 100.572 59.9901C97.7497 59.9901 95.4614 57.7018 95.4614 54.879L95.4614 24.6568C95.4614 21.834 97.7497 19.5457 100.572 19.5457Z" fill="white"/>
<path d="M142.573 101.546C142.573 98.7229 144.861 96.4346 147.684 96.4346H177.906C180.729 96.4346 183.017 98.7229 183.017 101.546C183.017 104.368 180.729 106.657 177.906 106.657H147.684C144.861 106.657 142.573 104.368 142.573 101.546Z" fill="white"/>
<path d="M130.187 72.2027C128.191 70.2067 128.191 66.9705 130.187 64.9745L151.557 43.6042C153.553 41.6082 156.789 41.6082 158.785 43.6042C160.781 45.6002 160.781 48.8364 158.785 50.8324L137.415 72.2027C135.419 74.1987 132.183 74.1987 130.187 72.2027Z" fill="white"/>
<path d="M129.868 131.285C131.864 129.289 135.1 129.289 137.096 131.285L158.467 152.656C160.463 154.652 160.463 157.888 158.467 159.884C156.471 161.88 153.234 161.88 151.238 159.884L129.868 138.514C127.872 136.517 127.872 133.281 129.868 131.285Z" fill="white"/>
<path d="M100.572 143.546C103.395 143.546 105.684 145.834 105.684 148.657L105.684 178.879C105.684 181.702 103.395 183.99 100.572 183.99C97.7497 183.99 95.4614 181.702 95.4614 178.879L95.4614 148.657C95.4614 145.834 97.7497 143.546 100.572 143.546Z" fill="white"/>
</g>
<path d="M389.857 62.6497C389.857 81.4792 381.032 95.2751 363.382 104.037C345.918 112.8 323.066 118.579 294.826 121.375C295.754 138.9 304.579 147.662 321.301 147.662C327.432 147.662 333.47 146.544 339.415 144.306C345.546 142.069 352.049 138.62 358.923 133.959L374.53 160.246C356.322 173.483 336.721 180.101 315.727 180.101C294.733 180.101 278.755 174.508 267.793 163.322C256.831 151.95 251.351 136.57 251.351 117.181C251.351 102.266 254.137 87.5382 259.711 72.9967C265.471 58.4551 274.667 46.3371 287.301 36.6427C299.935 26.9483 315.913 22.1011 335.235 22.1011C352.513 22.1011 365.89 25.9229 375.366 33.5666C385.027 41.2102 389.857 50.9046 389.857 62.6497ZM296.776 94.5294C314.055 93.4108 326.596 90.1483 334.399 84.7418C342.202 79.1489 346.104 72.4374 346.104 64.6073C346.104 61.0651 344.989 57.989 342.759 55.379C340.53 52.7689 336.907 51.4639 331.891 51.4639C322.23 51.4639 314.519 55.5654 308.76 63.7683C303 71.9713 299.006 82.225 296.776 94.5294Z" fill="#263142"/>
<path d="M531.797 26.8551L527.617 57.8958L453.487 141.79H517.306L508.666 175.347H394.963L399.143 144.027L473.552 60.1329H416.7L421.438 26.8551H531.797Z" fill="#263142"/>
<path d="M635.149 175.347L625.77 140.331H575.825L566.447 175.347H536.567L583.459 24.1194H619.009L665.683 175.347H635.149ZM581.496 118.445H619.882L600.689 46.2236L581.496 118.445Z" fill="#4289EC"/>
<path d="M772.118 24.1194L769.065 45.567H713.449V87.8057H761.868V109.253H713.449V153.681H772.991V175.347H684.66V24.1194H772.118Z" fill="#4289EC"/>
<path d="M945.351 175.347H917.215L913.29 112.098C911.981 89.4836 911.327 71.5376 911.327 58.2605V50.3818L883.846 158.933H856.583L827.358 50.1629C827.648 59.7925 827.794 67.0876 827.794 72.0483C827.794 85.3254 827.358 98.9672 826.485 112.974L822.777 175.347H794.86L806.856 24.1194H843.933L870.76 130.044L896.06 24.1194H933.573L945.351 175.347Z" fill="#4289EC"/>
<defs>
<clipPath id="clip0_214_124">
<path d="M0.350586 25.8789C0.350586 12.0718 11.5435 0.878906 25.3506 0.878906H175.351C189.158 0.878906 200.351 12.0718 200.351 25.8789V176.323C200.351 190.13 189.158 201.323 175.351 201.323H25.3506C11.5435 201.323 0.350586 190.13 0.350586 176.323V25.8789Z" fill="white"/>
</clipPath>
</defs>
</svg>
