<svg width="200" height="202" viewBox="0 0 200 202" fill="none" xmlns="http://www.w3.org/2000/svg">
<g clip-path="url(#clip0_214_23)">
<path d="M0 25.8789C0 12.0718 11.1929 0.878906 25 0.878906H175C188.807 0.878906 200 12.0718 200 25.8789V176.323C200 190.13 188.807 201.323 175 201.323H25C11.1929 201.323 0 190.13 0 176.323V25.8789Z" fill="#4289EC"/>
<path d="M0.444336 201.768H21.3332L120.5 102.879C122.5 101.379 120.755 95.1345 114 88.3789C107.244 81.6234 101.5 80.3789 99.4999 81.8789L0.444336 179.99V201.768Z" fill="#263142"/>
<path d="M69.9867 111.032L99.5963 81.7166C97.202 84.1108 100.064 90.1656 105.768 95.8692C111.472 101.573 118.591 104.755 121.091 102.254L90.8706 132.488C88.4233 134.936 79.3826 132.188 74.4451 127.25C69.5076 122.313 67.8106 113.209 69.9867 111.032Z" fill="white"/>
<path d="M18.2222 101.546C18.2222 98.7229 20.5105 96.4346 23.3333 96.4346H53.5555C56.3783 96.4346 58.6666 98.7229 58.6666 101.546C58.6666 104.368 56.3783 106.657 53.5555 106.657H23.3333C20.5105 106.657 18.2222 104.368 18.2222 101.546Z" fill="white"/>
<path d="M41.8361 43.6042C43.8321 41.6082 47.0683 41.6082 49.0643 43.6042L70.4346 64.9746C72.4306 66.9706 72.4306 70.2067 70.4346 72.2028C68.4386 74.1988 65.2024 74.1988 63.2064 72.2028L41.8361 50.8324C39.8401 48.8364 39.8401 45.6002 41.8361 43.6042Z" fill="white"/>
<path d="M100.222 19.5457C103.045 19.5457 105.333 21.834 105.333 24.6568L105.333 54.879C105.333 57.7018 103.045 59.9901 100.222 59.9901C97.3991 59.9901 95.1108 57.7018 95.1108 54.879L95.1108 24.6568C95.1108 21.834 97.3991 19.5457 100.222 19.5457Z" fill="white"/>
<path d="M142.222 101.546C142.222 98.7229 144.51 96.4346 147.333 96.4346H177.556C180.378 96.4346 182.667 98.7229 182.667 101.546C182.667 104.368 180.378 106.657 177.556 106.657H147.333C144.51 106.657 142.222 104.368 142.222 101.546Z" fill="white"/>
<path d="M129.836 72.2027C127.84 70.2067 127.84 66.9705 129.836 64.9745L151.207 43.6042C153.203 41.6082 156.439 41.6082 158.435 43.6042C160.431 45.6002 160.431 48.8364 158.435 50.8324L137.064 72.2027C135.068 74.1987 131.832 74.1987 129.836 72.2027Z" fill="white"/>
<path d="M129.517 131.285C131.514 129.289 134.75 129.289 136.746 131.285L158.116 152.656C160.112 154.652 160.112 157.888 158.116 159.884C156.12 161.88 152.884 161.88 150.888 159.884L129.517 138.514C127.521 136.517 127.521 133.281 129.517 131.285Z" fill="white"/>
<path d="M100.222 143.546C103.045 143.546 105.333 145.834 105.333 148.657L105.333 178.879C105.333 181.702 103.045 183.99 100.222 183.99C97.3991 183.99 95.1108 181.702 95.1108 178.879L95.1108 148.657C95.1108 145.834 97.3991 143.546 100.222 143.546Z" fill="white"/>
</g>
<defs>
<clipPath id="clip0_214_23">
<path d="M0 25.8789C0 12.0718 11.1929 0.878906 25 0.878906H175C188.807 0.878906 200 12.0718 200 25.8789V176.323C200 190.13 188.807 201.323 175 201.323H25C11.1929 201.323 0 190.13 0 176.323V25.8789Z" fill="white"/>
</clipPath>
</defs>
</svg>
